PathFileType	4	(X/Y/Z)	./resultDataOpenSim/trcMotMarkerGrf/sub10/qtm-15-04.trc
DataRate	CameraRate	NumFrames	NumMarkers	Units	OrigDataRate	OrigDataStartFrame	OrigNumFrames
250.000000	250.000000	10	24	m	250.000000	126	501
Frame#	Time	L.Toe.Tip			R.Toe.Tip			L.Ankle.Lat			R.Ankle.Lat			L.Ankle.Med			R.Ankle.Med			L.Heel			R.Heel			L.Knee.Lat			R.Knee.Lat			L.Knee.Med			R.Knee.Med			L.Thigh.Upper			R.Thigh.Upper			L.ASIS			R.ASIS			V.Sacral			L.Acromium			R.Acromium			C7			L.Elbow			R.Elbow			L.Wrist.Lat			R.Wrist.Lat
		X1	Y1	Z1	X2	Y2	Z2	X3	Y3	Z3	X4	Y4	Z4	X5	Y5	Z5	X6	Y6	Z6	X7	Y7	Z7	X8	Y8	Z8	X9	Y9	Z9	X10	Y10	Z10	X11	Y11	Z11	X12	Y12	Z12	X13	Y13	Z13	X14	Y14	Z14	X15	Y15	Z15	X16	Y16	Z16	X17	Y17	Z17	X18	Y18	Z18	X19	Y19	Z19	X20	Y20	Z20	X21	Y21	Z21	X22	Y22	Z22	X23	Y23	Z23	X24	Y24	Z24

126	0.5	-0.16244366	0.10212406	-0.13686306	-0.68639327	0.03866537	-0.042795818	-0.28847923	0.084183236	-0.18556876	-0.82803586	0.054190187	-0.0034667389	-0.29594331	0.10961692	-0.10331899	-0.80834255	0.083819463	-0.08762765	-0.34377362	0.03304634	-0.15268239	-0.87952608	0.032814807	-0.051798308	-0.3747014	0.46299463	-0.20434688	-0.71966554	0.45366572	0.071230317	-0.37640838	0.44015589	-0.085758773	-0.69189792	0.44543805	-0.074518034	-0.524446	0.82679593	-0.25298345	-0.62333837	0.8441048	0.12145777	-0.49233856	0.93649928	-0.17462622	-0.53040964	0.93567089	0.06396707	-0.70919034	0.94452351	-0.087763179	-0.56420022	1.4073115	-0.2051013	-0.6108395	1.3952575	0.11350117	-0.66863103	1.4275824	-0.058751917	-0.70583865	1.1043246	-0.29345097	-0.62354855	1.0383942	0.16948698	-0.63840032	0.86956689	-0.30163948	-0.41175806	0.91708165	0.22711054
127	0.504	-0.1473749	0.10589047	-0.13449412	-0.68636796	0.038598848	-0.042775052	-0.27284845	0.084857053	-0.18385909	-0.8278782	0.054296658	-0.0035223435	-0.28181786	0.11014753	-0.1021706	-0.80810728	0.083820178	-0.087716097	-0.32706239	0.032548859	-0.15094509	-0.87954056	0.033235992	-0.052568954	-0.36767937	0.46139051	-0.20378688	-0.71644146	0.45267551	0.070872823	-0.3702939	0.43816639	-0.085175527	-0.68845331	0.44438418	-0.074632447	-0.51748644	0.82518673	-0.25285292	-0.61859611	0.8430128	0.12119774	-0.48570865	0.93501402	-0.17435629	-0.52517556	0.93422574	0.064122807	-0.70317218	0.9429173	-0.08833924	-0.55838249	1.4055953	-0.20482965	-0.60518633	1.3934587	0.11380901	-0.66317152	1.4258669	-0.058513685	-0.70079387	1.1030399	-0.2918349	-0.61598189	1.0363613	0.17032586	-0.63529302	0.86816467	-0.30116837	-0.40227293	0.917933	0.2270593
128	0.508	-0.13284265	0.10947	-0.13233014	-0.68633795	0.038543527	-0.04273366	-0.25774142	0.085666203	-0.18225588	-0.82779214	0.05444204	-0.0035658622	-0.26782727	0.11091115	-0.10083821	-0.8078662	0.08382833	-0.087814648	-0.31094948	0.032296899	-0.14934265	-0.87953971	0.033648937	-0.053233851	-0.36063241	0.4598688	-0.20318798	-0.7129937	0.45153992	0.070337886	-0.36410962	0.43629883	-0.084523707	-0.68482627	0.44328493	-0.074748326	-0.51041846	0.82351937	-0.25272604	-0.61382099	0.84187801	0.1208895	-0.47906462	0.93345774	-0.17410343	-0.51992874	0.93274118	0.064289328	-0.69703852	0.94109011	-0.089205333	-0.55255176	1.4038645	-0.20457034	-0.5995205	1.3916374	0.1141147	-0.65777593	1.4241201	-0.058284361	-0.69592867	1.1017457	-0.29009055	-0.60842513	1.0343179	0.17115499	-0.63195529	0.86677112	-0.30067997	-0.39286329	0.91875224	0.22698263
129	0.512	-0.11887881	0.11281639	-0.1303588	-0.68630703	0.038498213	-0.042682992	-0.24322902	0.086568661	-0.18073623	-0.8277476	0.054683724	-0.0036081039	-0.25415472	0.11183291	-0.099440654	-0.80761185	0.083847379	-0.087925558	-0.29547849	0.032230755	-0.14786138	-0.87951535	0.0340057	-0.053615743	-0.35352686	0.45843334	-0.20255866	-0.7093713	0.45029705	0.069668879	-0.3578294	0.43457056	-0.083825165	-0.68104385	0.44215698	-0.074879578	-0.50327518	0.82179245	-0.25260752	-0.60901317	0.84070289	0.12052296	-0.47229929	0.93182779	-0.17389982	-0.51465804	0.93121533	0.064468484	-0.69082864	0.93917793	-0.090185963	-0.54671381	1.40212	-0.20434024	-0.59381042	1.3898002	0.11443556	-0.65228434	1.4223601	-0.058094684	-0.69155777	1.1005217	-0.28878278	-0.60087602	1.0322718	0.17197492	-0.6285097	0.86537675	-0.30023178	-0.3835361	0.9195433	0.22687872
130	0.516	-0.1054947	0.11591866	-0.12858588	-0.68627919	0.038459174	-0.042631227	-0.22938105	0.08751388	-0.17926928	-0.82769912	0.05505194	-0.0036787812	-0.24100398	0.11278038	-0.098083715	-0.80733987	0.083880469	-0.088041666	-0.28068118	0.032273552	-0.14645328	-0.87947497	0.034334934	-0.053825673	-0.34632593	0.45709305	-0.20190721	-0.70560586	0.44897291	0.068896128	-0.35140787	0.43300038	-0.083085664	-0.67711918	0.44101337	-0.075034468	-0.49614248	0.82000476	-0.25248548	-0.6041701	0.83949905	0.12009887	-0.4653768	0.93011534	-0.17378711	-0.50936065	0.92965119	0.064662579	-0.68458131	0.9372663	-0.0912184	-0.54087889	1.4003558	-0.20414881	-0.58803804	1.3879453	0.11477674	-0.64652184	1.4206147	-0.057979509	-0.68762401	1.0993796	-0.28823648	-0.59331876	1.030219	0.17277892	-0.62502276	0.86396993	-0.29980515	-0.37429245	0.92030466	0.22674683
131	0.52	-0.092696492	0.11874602	-0.12700064	-0.68625568	0.038424167	-0.042580935	-0.21621108	0.088446086	-0.17784761	-0.82764436	0.055517729	-0.0038093363	-0.22846732	0.11364809	-0.096789633	-0.80704511	0.083935209	-0.088157314	-0.26660364	0.03236665	-0.14508773	-0.87942513	0.034688667	-0.054004183	-0.33900872	0.45586726	-0.20123519	-0.70173817	0.4475965	0.068044134	-0.34480207	0.43160953	-0.082303728	-0.67306068	0.43986735	-0.075220965	-0.48903827	0.81817095	-0.25235061	-0.59925418	0.83826019	0.11959311	-0.45840156	0.92833929	-0.1737389	-0.50404019	0.92805368	0.064878527	-0.67830803	0.93537429	-0.09234209	-0.53505214	1.3985721	-0.20399558	-0.58221941	1.3860733	0.11512034	-0.64057156	1.4189088	-0.05792576	-0.6838054	1.0982455	-0.28812984	-0.58574341	1.0281605	0.17355718	-0.62143357	0.86255386	-0.29937563	-0.36512876	0.92103607	0.22658855
132	0.524	-0.080496441	0.12124256	-0.12556219	-0.68623373	0.038395133	-0.042531099	-0.20369803	0.089309425	-0.17647716	-0.82760888	0.056012667	-0.0040071499	-0.21655046	0.11437905	-0.095532771	-0.80672032	0.084023519	-0.088276431	-0.25330161	0.032478981	-0.14377541	-0.87936481	0.035107808	-0.054195633	-0.33157645	0.45478291	-0.20053684	-0.6978435	0.4462206	0.067157789	-0.33799906	0.43041287	-0.081487415	-0.6688932	0.43873701	-0.075450148	-0.48191002	0.81631897	-0.25220519	-0.59419214	0.83695077	0.11895007	-0.45151457	0.92655785	-0.17363219	-0.49869958	0.92642769	0.065125652	-0.67200372	0.93349071	-0.09361477	-0.52923288	1.3967808	-0.20388309	-0.57639182	1.3841948	0.11543476	-0.63471997	1.4172345	-0.057882548	-0.67977218	1.097035	-0.28791661	-0.57815398	1.026109	0.17430515	-0.61761859	0.86112813	-0.29897235	-0.35604227	0.92174003	0.22640684
133	0.528	-0.068909316	0.12335378	-0.1242314	-0.68620895	0.038375269	-0.042481495	-0.19182542	0.090048574	-0.17515516	-0.82757949	0.056472209	-0.0042465175	-0.20522008	0.11495128	-0.094280769	-0.80636238	0.084155127	-0.08840741	-0.24080427	0.032581475	-0.14253718	-0.87928973	0.035613007	-0.05439323	-0.3240522	0.45386505	-0.199804	-0.69399512	0.44489877	0.066292701	-0.33101562	0.42940981	-0.080653458	-0.66464183	0.43764034	-0.075729314	-0.47471064	0.81447234	-0.25204697	-0.58892521	0.83552579	0.11813484	-0.44476823	0.92482798	-0.17333553	-0.49333807	0.92477939	0.065405826	-0.66566083	0.93160421	-0.09505848	-0.52342208	1.3949966	-0.20381808	-0.57056756	1.3823241	0.11569595	-0.62909841	1.4155512	-0.057823802	-0.67539799	1.0957459	-0.28736661	-0.57055826	1.0240806	0.17502412	-0.6135067	0.85966693	-0.29866648	-0.34703452	0.92241938	0.22620396
134	0.532	-0.057935746	0.12503377	-0.12299819	-0.68617949	0.038363842	-0.042434617	-0.18058473	0.090610482	-0.17387546	-0.82749533	0.056860783	-0.0044857862	-0.1944395	0.11535604	-0.093015181	-0.80597237	0.084332791	-0.088549385	-0.22908403	0.03262654	-0.14136894	-0.87919675	0.036204368	-0.054592416	-0.31646949	0.453117	-0.19903093	-0.69020469	0.44363993	0.065469661	-0.32388295	0.42857839	-0.079816276	-0.66031345	0.43658151	-0.076058612	-0.46742105	0.81263339	-0.25185837	-0.58350694	0.83397345	0.11722989	-0.43811353	0.92315124	-0.17285358	-0.48795143	0.92311419	0.065711174	-0.65927499	0.92971259	-0.096658368	-0.51761928	1.3932324	-0.20379952	-0.56472738	1.380472	0.11589908	-0.62358808	1.4138312	-0.057761794	-0.67074837	1.0944363	-0.28654107	-0.56296111	1.0220874	0.17571466	-0.60914079	0.85813754	-0.29849434	-0.33811044	0.92307809	0.22598092
135	0.536	-0.04755457	0.12624435	-0.12187301	-0.68614634	0.038355274	-0.042393497	-0.16998286	0.090947124	-0.17263166	-0.82732321	0.057168117	-0.004695342	-0.18419663	0.11558214	-0.091740054	-0.80554864	0.084554854	-0.088689699	-0.21806747	0.032566528	-0.14025709	-0.87908567	0.036873789	-0.054802946	-0.30884727	0.45250643	-0.19821535	-0.68642327	0.44240859	0.064664563	-0.31663118	0.42788095	-0.078978256	-0.65590213	0.43554201	-0.076432526	-0.46003877	0.81077891	-0.25162241	-0.57816637	0.83233722	0.11648844	-0.43144592	0.92145249	-0.17239192	-0.48253265	0.92143392	0.066035266	-0.6528447	0.92782002	-0.098383018	-0.5118198	1.3914959	-0.20381257	-0.55885772	1.3786429	0.11605638	-0.61803101	1.4120852	-0.057715306	-0.66594373	1.093141	-0.28559578	-0.55536554	1.020135	0.17637152	-0.60467811	0.85656284	-0.29840721	-0.32926866	0.92371705	0.22573233
